PathFileType	4	(X/Y/Z)	AB06\squats_1.trc
DataRate	CameraRate	NumFrames	NumMarkers	Units	OrigDataRate	OrigDataStartFrame	OrigNumFrames
200.000000	200.000000	4	35	mm	200.000000	245	392
Frame#	Time	C7			LSHO			LASI			RASI			LPSI			RPSI			LGTR			RGTR			LTHC			LTHL			LTHR			LKNE			LMKNE			LSHC			LSHL			LSHR			LANK			LMANK			LMT1			LMT5			LCAL			RTHC			RTHL			RTHR			RKNE			RMKNE			RSHC			RSHL			RSHR			RANK			RMANK			RMT1			RMT5			RCAL			STRN			
		X1	Y1	Z1	X2	Y2	Z2	X3	Y3	Z3	X4	Y4	Z4	X5	Y5	Z5	X6	Y6	Z6	X7	Y7	Z7	X8	Y8	Z8	X9	Y9	Z9	X10	Y10	Z10	X11	Y11	Z11	X12	Y12	Z12	X13	Y13	Z13	X14	Y14	Z14	X15	Y15	Z15	X16	Y16	Z16	X17	Y17	Z17	X18	Y18	Z18	X19	Y19	Z19	X20	Y20	Z20	X21	Y21	Z21	X22	Y22	Z22	X23	Y23	Z23	X24	Y24	Z24	X25	Y25	Z25	X26	Y26	Z26	X27	Y27	Z27	X28	Y28	Z28	X29	Y29	Z29	X30	Y30	Z30	X31	Y31	Z31	X32	Y32	Z32	X33	Y33	Z33	X34	Y34	Z34	X35	Y35	Z35	

246	46.13	-3627.447800390838	1078.99192997377	2497.216720230862	-3683.647935975382	978.6571425609335	2645.839845343698	-3376.468144036171	634.164048165643	2612.967645459344	-3387.214677887347	642.62697937898	2354.176224554009	-3198.606558962549	664.267166396353	2521.983616210351	-3204.200202817451	670.9332707492994	2428.59793266048	-3298.587312435861	623.824514867477	2680.585718187569	-3333.545032725577	654.2719521484919	2308.433147430115	-3379.634997175662	590.2295206835859	2713.731596059052	-3514.737341901712	620.3393356228992	2670.053646855173	-3465.832189681671	452.8041481991099	2736.875483952059	-3675.660064728491	494.3546605217828	2836.647124434708	-3734.137397425664	482.6982271058187	2729.383008953025	-3589.525087230277	432.6417206276677	2818.958263173296	-3576.649215711426	204.2472648118559	2768.774634035175	-3489.975019696101	248.3318483935825	2735.675161429707	-3461.480541001314	103.5921904902306	2767.996048782985	-3494.86430253774	113.2996504740953	2686.017867466671	-3617.869807571591	50.1361398657879	2715.576430268191	-3566.512755593151	51.25422370948354	2828.719585211144	-3394.187766440213	79.2065390316892	2715.413866346858	-3531.094365407859	448.778868519955	2255.491695937472	-3448.779452150915	573.1537182789069	2243.110930540496	-3548.709598340145	597.8340241219856	2360.253969018796	-3729.175352352519	488.0110065790902	2204.432743715562	-3762.645032415948	472.2431341151735	2318.090655695893	-3525.024781036213	247.0490446052254	2276.383747810879	-3655.074837268489	421.4526870662679	2194.013292600582	-3612.051293714851	197.2734385802302	2258.993345528065	-3495.5280962662	108.6821893616156	2238.431578794999	-3528.416095802173	113.244109477882	2323.930929818121	-3643.754090267124	51.78419455266479	2298.359491962664	-3607.784052366663	39.34069088153624	2180.38001162152	-3429.298896913777	79.87481202637693	2280.885930960161	-3612.239237030918	772.0996323010665	2497.698270255572	
247	46.135	-3627.055384425318	1082.239990667813	2497.101852681575	-3683.355617115885	982.0096490947263	2645.813724077066	-3376.558601928851	636.866201976228	2612.840267433064	-3387.467038365041	645.2632814984073	2354.181185765911	-3198.832680087564	667.2331176076393	2521.828684672448	-3204.455703905519	673.8615312518954	2428.373283565701	-3298.767956528275	626.3801495809067	2680.511334424787	-3333.936646386534	656.8376159191488	2308.282147974383	-3379.884378334119	592.2324771604234	2713.797963879153	-3515.194878092153	621.7780435956729	2670.260320498455	-3465.523794189873	454.3247408877678	2736.665581465944	-3675.512466364541	494.5512978177528	2836.516164223076	-3733.88516572086	482.8694611065495	2729.313712816663	-3589.369370076719	432.7891557443708	2818.815045846151	-3576.545333870296	204.336775524477	2768.737425932936	-3489.857087421819	248.366588059804	2735.607275773526	-3461.44351888334	103.5947747437343	2767.979953664339	-3494.809332319271	113.3059858697501	2686.024545360527	-3617.846646280388	50.16016862361516	2715.585700743197	-3566.494166507402	51.27716125660773	2828.724758273077	-3394.171266318805	79.19886876964115	2715.411542035471	-3530.961238087143	450.019066151596	2255.727915483622	-3449.216023957846	574.790680105058	2243.037084322881	-3549.172351057095	599.1593962400538	2360.141717400515	-3729.239848278891	488.0794308552848	2204.735306380593	-3762.46911090095	472.3223693305504	2318.360005466681	-3524.965752222965	247.0560102512112	2276.447272670786	-3655.055684749704	421.5714448898425	2194.326337014265	-3612.005821819897	197.2986319040218	2259.124169098543	-3495.521765930661	108.6888400273777	2238.431159089367	-3528.379599280135	113.2368353400554	2323.952935605093	-3643.736550871737	51.78202997324993	2298.401890922357	-3607.787216362768	39.37122028205552	2180.410251702873	-3429.280367314466	79.86256773624581	2280.866805759759	-3612.280474517127	775.4041319077113	2497.68159455879	
248	46.14	-3626.658138758347	1085.542875920125	2496.987544829371	-3683.063666134577	985.4188306443798	2645.788287716639	-3376.662710109642	639.6219196752988	2612.711058757697	-3387.729654494544	647.9467295116365	2354.183171436753	-3199.067269222622	670.241385726909	2521.677729751088	-3204.719791718731	676.8288888223454	2428.151215452882	-3298.963793774284	628.9744184121654	2680.434412825347	-3334.33333047725	659.4375622755679	2308.131110208019	-3380.150928103477	594.265935375969	2713.868182715662	-3515.671887589544	623.233237722181	2670.469545114041	-3465.220975644252	455.8688877178977	2736.447446557721	-3675.373653812156	494.7521110431077	2836.372144939021	-3733.635149948843	483.0411169341643	2729.229797434914	-3589.214267132857	432.9364496202903	2818.656386170069	-3576.441314093749	204.4285007083717	2768.695942449956	-3489.741489712412	248.4014765770596	2735.529522260953	-3461.406076373963	103.5977150676898	2767.958500759857	-3494.756955641789	113.3095869854907	2686.028614655398	-3617.824412885977	50.18421724429586	2715.595137813668	-3566.475163075937	51.30120542009343	2828.730223123962	-3394.155225083	79.19230538766196	2715.409433098719	-3530.81824398194	451.2807149696018	2255.964773109065	-3449.651787098557	576.4503213246309	2242.963984744459	-3549.63884445141	600.5027791123384	2360.023808217278	-3729.290236732259	488.1526123239684	2205.032849811934	-3762.281304612954	472.4129261164434	2318.621191918699	-3524.899003031955	247.0655827029594	2276.511041759942	-3655.023376084866	421.6962417669213	2194.632643980318	-3611.955583187193	197.3324343791489	2259.251041517827	-3495.513633071476	108.6960607918113	2238.429688304238	-3528.343393830816	113.2305683939172	2323.972217495316	-3643.717291786741	51.77770115305537	2298.440738879623	-3607.789322562046	39.39980464433327	2180.441882466637	-3429.261571652767	79.85060668525925	2280.849071738008	-3612.329812602112	778.7656985508228	2497.664027952218	
249	46.145	-3626.256217952099	1088.899781854092	2496.874249091627	-3682.771902407198	988.883902716947	2645.763543360732	-3376.780948288962	642.4307788511027	2612.58032066293	-3388.002013232036	650.6754384409755	2354.182198227957	-3199.310215082387	673.2908405374087	2521.5308568578	-3204.992403465113	679.8342026528987	2427.932279092825	-3299.175041132084	631.606345029075	2680.354694799236	-3334.734642182532	662.0706485088809	2307.980468306146	-3380.434803918127	596.3292252483117	2713.942423004631	-3516.16878919954	624.7042425516781	2670.681367820743	-3464.924107246182	457.4359831569928	2736.221158134708	-3675.243493492089	494.9568870023248	2836.215157878336	-3733.386959483485	483.2132041371695	2729.131210368703	-3589.059704327112	433.0837133491331	2818.48224757485	-3576.33739776372	204.5225635473869	2768.649997556818	-3489.628193962862	248.4364256620068	2735.442109943877	-3461.368144311069	103.6010142147218	2767.932031544871	-3494.707269249623	113.3106069291749	2686.030143381439	-3617.803055973381	50.20821071203805	2715.604616213609	-3566.455867544441	51.3261538400202	2828.735877618499	-3394.139557695327	79.18679898996288	2715.407744000673	-3530.665097650535	452.5634600414688	2256.202247391349	-3450.086565091426	578.1320554160507	2242.891816468164	-3550.108788317275	601.8633613537711	2359.900522849856	-3729.326013088366	488.2306191365936	2205.325233032472	-3762.081694217454	472.5152102187593	2318.874094341275	-3524.824589237433	247.0776057983706	2276.574907217136	-3654.977552530809	421.8268800644307	2194.931812358092	-3611.900928097639	197.3751802089787	2259.37349182167	-3495.503619966488	108.7039512896603	2238.427072351123	-3528.307359297799	113.2254833276233	2323.988627422066	-3643.696383261533	51.77138833576369	2298.475913752258	-3607.79042538398	39.42646460619563	2180.474687249707	-3429.242372395349	79.83886172377522	2280.832674528422	-3612.386221416949	782.183287355285	2497.645853466277	
